<?xml version="1.0" encoding="UTF-8" standalone="no"?>
<!-- Generator: Adobe Illustrator 14.0.0, SVG Export Plug-In . SVG Version: 6.00 Build 43363)  -->

<svg
   xmlns:dc="http://purl.org/dc/elements/1.1/"
   xmlns:cc="http://creativecommons.org/ns#"
   xmlns:rdf="http://www.w3.org/1999/02/22-rdf-syntax-ns#"
   xmlns:svg="http://www.w3.org/2000/svg"
   xmlns="http://www.w3.org/2000/svg"
   xmlns:sodipodi="http://sodipodi.sourceforge.net/DTD/sodipodi-0.dtd"
   xmlns:inkscape="http://www.inkscape.org/namespaces/inkscape"
   version="1.1"
   id="Ebene_1"
   x="0px"
   y="0px"
   width="225.16362"
   height="219.47948"
   viewBox="0 0 225.16362 219.47948"
   xml:space="preserve"
   sodipodi:docname="Duely-small.svg"
   inkscape:version="0.92.1 r15371"><metadata
     id="metadata74"><rdf:RDF><cc:Work
         rdf:about=""><dc:format>image/svg+xml</dc:format><dc:type
           rdf:resource="http://purl.org/dc/dcmitype/StillImage" /><dc:title></dc:title></cc:Work></rdf:RDF></metadata><defs
     id="defs72" /><sodipodi:namedview
     pagecolor="#ffffff"
     bordercolor="#666666"
     borderopacity="1"
     objecttolerance="10"
     gridtolerance="10"
     guidetolerance="10"
     inkscape:pageopacity="0"
     inkscape:pageshadow="2"
     inkscape:window-width="1920"
     inkscape:window-height="1017"
     id="namedview70"
     showgrid="false"
     fit-margin-top="0"
     fit-margin-left="0"
     fit-margin-right="0"
     fit-margin-bottom="0"
     inkscape:zoom="1.4"
     inkscape:cx="231.22662"
     inkscape:cy="32.664587"
     inkscape:window-x="1672"
     inkscape:window-y="-8"
     inkscape:window-maximized="1"
     inkscape:current-layer="g59" /><g
     id="g59"
     transform="translate(-3.3343758,-15.129977)"><path
       style="stroke:#000000"
       d="m 42.998,105.254 c -1.422,-3.342 -2.125,-6.777 -2.111,-10.306 0.048,-11.547 8.316,-21.853 24.806,-30.917 16.488,-9.063 35.142,-13.546 55.958,-13.447 21.895,0.104 39.115,5.382 51.665,15.833 12.548,10.452 18.785,24.724 18.709,42.813 -0.101,24.057 -9.97,45.213 -29.607,63.466 -10.39,9.639 -23.358,17.498 -38.908,23.583 -15.549,6.086 -30.412,9.095 -44.589,9.027 -13.639,-0.064 -20.435,-5.582 -20.389,-16.552 0.017,-3.977 1.217,-12.182 3.603,-24.617 l 11.927,-62.779 c 1.039,-5.384 1.564,-9.262 1.574,-11.636 0.01,-2.245 -0.7,-4.3 -2.127,-6.169 7.969,-3.169 13.509,-4.747 16.62,-4.732 3.708,0.018 5.554,2.336 5.535,6.955 -0.004,1.092 -0.985,6.699 -2.942,16.825 L 82.721,155.19 c -2.509,13.396 -3.77,21.826 -3.784,25.29 -0.016,3.849 1.184,6.466 3.602,7.85 2.417,1.385 6.975,2.099 13.675,2.144 21.714,0.09 39.926,-6.915 54.635,-21.017 14.708,-14.101 22.114,-31.642 22.214,-52.619 0.055,-16.229 -5.218,-29.241 -15.818,-39.037 C 146.644,68.007 132.49,63.061 114.784,62.963 100.367,62.908 86.908,66.569 74.404,73.945 61.896,81.323 51.428,91.759 42.998,105.254 Z"
       id="path49"
       inkscape:connector-curvature="0" /></g><g
     id="g67"
     transform="translate(-3.3343758,-15.129977)"><g
       id="g65"><g
         id="g63"><path
           style="fill:#be1d3c"
           d="m 179.1,61.012 c 0.417,-0.33 -0.784,-2.177 1.796,-0.088 7.872,7.011 11.634,14.988 16.688,23.732 l 1.09,0.283 c 3.134,7.166 4.782,14.957 4.875,23.086 1.106,14.906 -3.16,30.708 -10.397,45.125 0.463,-0.232 0.819,-0.275 0.166,1.209 -2.906,5.957 -8.433,14.258 -14.45,20.592 l -2.938,3.168 c -0.656,0.92 -0.65,1.344 -0.654,1.6 -3.252,3.033 -6.286,5.555 -9.181,7.768 -18.166,15.545 -41.438,25.877 -66.289,25.994 -23.953,-0.688 -51.619,-9.965 -66.254,-32.805 -7.348,-9.16 -12.132,-19.158 -12.754,-30.564 -0.753,-16.827 1.175,-39.286 9.982,-52.654 -1.957,0.383 1.53,-8.445 7.043,-15.66 5.316,-7.264 11.915,-12.903 7.529,-11.651 9.25,-7.518 25.99,-13.511 26.654,-14.307 1.754,-2.544 9.885,-11.033 42.42,-12.379 12.831,-0.245 31.244,4.205 36.25,5.331 7.169,0.781 -16.247,-5.629 -8.97,-4.734 C 118.529,39.55 94.433,39.047 70.756,45.97 47.249,52.906 25.147,68.739 13.42,91.995 c -5.884,11.279 -8.692,24.684 -9.335,36.122 -0.768,11.079 -1.635,22.956 1.232,36.26 2.959,13.59 10.545,24.721 17.157,33.645 7.674,10.754 18.703,19.08 29.647,24.639 7.679,3.352 26.581,12.783 54.38,11.889 26.945,-0.617 59.315,-13.668 83.036,-36.658 24.688,-23.59 38.915,-55.996 38.961,-87.026 -0.027,-15.371 -4.771,-29.637 -10.487,-40.048 -5.661,-10.49 -11.958,-18.143 -16.893,-23.461 -1.259,-1.243 -2.44,-2.541 -3.76,-3.713 -5.725,-5.503 -12.376,-10.783 -20.108,-15.025 -7.896,-4.485 -16.305,-6.938 -24.084,-8.998 -15.977,-4.036 -31.689,-4.953 -44.359,-4.299 -11.599,0.831 -23.302,2.622 -34.767,5.893 5.473,-0.631 10.569,-0.908 14.944,-0.911 -11.868,1.133 -23.407,4.329 -27.565,6.203 -23.214,9.861 -9.091,6.106 0.312,4.978 6.67,-1.125 -1.554,2.744 8.657,0.761 -7.188,1.943 -10.754,3.09 -17.732,5.798 -0.67,0.625 21.643,-7.783 17.126,-4.754 -7.003,1.498 -14.413,4.672 -21.155,7.682 2.587,-0.559 24.196,-8.335 23.513,-6.506 -3.785,0.909 -20.206,4.725 -20.862,6.919 -0.16,0.333 6.616,-2.438 10.119,-3.513 -21.13,8.291 -30.174,16.536 -11.938,8.345 -3.181,1.399 -6.963,3.204 -10.632,5.205 -1.825,1.003 -3.626,2.082 -5.196,3.169 -1.302,0.567 -3.751,3.42 -2.403,1.468 l -0.003,0.077 c -1.302,1.876 1.639,-1.117 3.256,-1.873 1.983,-1.249 4.063,-2.407 5.498,-3.248 -3.359,1.894 -7.447,4.596 -9.127,6.184 0.447,-0.095 0.676,-0.128 1.396,-0.423 2.086,-1.438 4.739,-3.05 7.465,-4.608 -2.323,1.342 -4.581,2.795 -6.549,4.236 1.748,-0.71 3.807,-1.606 6.185,-2.534 8.612,-4.141 17.752,-6.433 22.607,-8.099 19.632,-6.812 41.261,-8.183 62.439,-6.282 10.5,1.056 20.761,3.254 30.405,6.647 9.249,2.892 16.938,8.122 24.3,14.876 z"
           id="path61"
           inkscape:connector-curvature="0" /></g></g></g></svg>