<?xml version="1.0" encoding="UTF-8" standalone="no"?>
<svg
   xmlns:dc="http://purl.org/dc/elements/1.1/"
   xmlns:cc="http://creativecommons.org/ns#"
   xmlns:rdf="http://www.w3.org/1999/02/22-rdf-syntax-ns#"
   xmlns:svg="http://www.w3.org/2000/svg"
   xmlns="http://www.w3.org/2000/svg"
   xmlns:sodipodi="http://sodipodi.sourceforge.net/DTD/sodipodi-0.dtd"
   xmlns:inkscape="http://www.inkscape.org/namespaces/inkscape"
   width="79"
   height="79"
   viewBox="0 0 79 79"
   version="1.1"
   preserveAspectRatio="xMidYMid"
   id="svg2"
   inkscape:version="0.91 r13725"
   sodipodi:docname="electron.svg">
  <metadata
     id="metadata28">
    <rdf:RDF>
      <cc:Work
         rdf:about="">
        <dc:format>image/svg+xml</dc:format>
        <dc:type
           rdf:resource="http://purl.org/dc/dcmitype/StillImage" />
        <dc:title></dc:title>
      </cc:Work>
    </rdf:RDF>
  </metadata>
  <defs
     id="defs26" />
  <sodipodi:namedview
     pagecolor="#ffffff"
     bordercolor="#666666"
     borderopacity="1"
     objecttolerance="10"
     gridtolerance="10"
     guidetolerance="10"
     inkscape:pageopacity="0"
     inkscape:pageshadow="2"
     inkscape:window-width="1301"
     inkscape:window-height="744"
     id="namedview24"
     showgrid="false"
     inkscape:zoom="1.729097"
     inkscape:cx="132.13262"
     inkscape:cy="37.202178"
     inkscape:window-x="65"
     inkscape:window-y="24"
     inkscape:window-maximized="1"
     inkscape:current-layer="svg2" />
  <g
     id="g4"
     transform="translate(3.1723383,1.156673)"
     style="fill:#47848f">
    <g
       id="g8">
      <path
         d="M 25.509412,16.806046 C 15.31951,14.950125 7.2627581,16.892596 4.0517192,22.454279 1.6555702,26.604531 2.3404899,32.107073 5.7127865,37.988953 5.9998187,38.489588 6.638349,38.662747 7.1389838,38.375715 7.6396186,38.088683 7.8127777,37.450153 7.5257455,36.949518 4.4879422,31.651053 3.8968301,26.902146 5.8615356,23.499176 8.5289593,18.879063 15.715442,17.146412 25.13495,18.862019 c 0.567742,0.103405 1.111813,-0.273014 1.215218,-0.840756 0.103404,-0.567741 -0.273015,-1.111812 -0.840756,-1.215217 l 0,0 0,0 z M 11.011875,45.138338 c 4.120228,4.527825 9.473092,8.774698 15.577732,12.299214 14.781422,8.534057 30.517288,10.815107 38.272576,5.52711 0.476792,-0.325104 0.599759,-0.975168 0.274656,-1.45196 -0.325104,-0.476792 -0.975169,-0.59976 -1.45196,-0.274656 -6.940891,4.732696 -21.888826,2.565863 -36.050374,-5.610311 -5.922187,-3.419176 -11.105518,-7.531544 -15.07699,-11.895898 -0.388395,-0.426816 -1.049254,-0.457964 -1.476071,-0.06957 -0.426816,0.388394 -0.457964,1.049253 -0.06957,1.47607 l 0,0 0,0 z"
         id="path10"
         inkscape:connector-curvature="0" />
      <path
         d="m 62.388258,43.867198 c 6.672101,-7.882046 9.001768,-15.809611 5.797341,-21.359842 -2.357877,-4.083964 -7.342497,-6.240125 -13.966979,-6.326277 -0.577033,-0.0075 -1.050893,0.454189 -1.058398,1.031222 -0.0075,0.577032 0.45419,1.050893 1.031222,1.058397 5.957886,0.07748 10.252239,1.935061 12.184339,5.281556 2.66166,4.61013 0.584115,11.679754 -5.58258,18.964741 -0.372848,0.440462 -0.318036,1.09978 0.122426,1.472628 0.440462,0.372849 1.099781,0.318037 1.472629,-0.122425 l 0,0 0,0 z M 45.241036,17.153984 c -6.03268,1.292528 -12.453923,3.819681 -18.620784,7.38012 -15.259026,8.809803 -25.2128348,21.800173 -23.830417,31.219368 0.083798,0.570965 0.6145883,0.965891 1.1855529,0.882093 0.5709646,-0.0838 0.965891,-0.614589 0.8820928,-1.185553 C 3.6300396,47.08676 13.065275,34.773162 27.66515,26.34392 c 5.982345,-3.453909 12.199823,-5.900867 18.013698,-7.146515 0.564274,-0.120899 0.923702,-0.676341 0.802804,-1.240616 -0.120898,-0.564275 -0.676341,-0.923703 -1.240616,-0.802805 l 0,0 0,0 z"
         id="path12"
         inkscape:connector-curvature="0" />
      <path
         d="m 20.520831,62.28374 c 3.488486,9.741107 9.195646,15.738647 15.613151,15.738647 4.680406,0 9.010699,-3.190489 12.387437,-8.807582 0.297325,-0.494591 0.13741,-1.136567 -0.357182,-1.433892 -0.494591,-0.297325 -1.136566,-0.13741 -1.433891,0.357181 -3.034669,5.048073 -6.762254,7.794497 -10.596364,7.794497 -5.330861,0 -10.421144,-5.349276 -13.645712,-14.35343 -0.194564,-0.543294 -0.792716,-0.825994 -1.336009,-0.63143 -0.543293,0.194564 -0.825994,0.792716 -0.63143,1.336009 l 0,0 0,0 z m 31.864763,-1.905469 c 1.805922,-5.771044 2.775847,-12.428474 2.775847,-19.365904 0,-17.310865 -6.058723,-32.2334811 -14.688572,-36.0653964 -0.527424,-0.2341925 -1.144837,0.00352 -1.379029,0.5309435 -0.234193,0.5274245 0.0035,1.144837 0.530943,1.3790295 7.696782,3.4176054 13.446862,17.5800344 13.446862,34.1554234 0,6.730436 -0.939297,13.177643 -2.680476,18.741792 -0.172344,0.550745 0.134411,1.136925 0.685157,1.309268 0.550745,0.172344 1.136925,-0.134411 1.309268,-0.685156 l 0,0 0,0 z"
         id="path14"
         inkscape:connector-curvature="0" />
      <path
         d="m 72.065049,59.354579 c 0,-2.762009 -2.239052,-5.001061 -5.001062,-5.001061 -2.76201,0 -5.001062,2.239052 -5.001062,5.001061 0,2.76201 2.239052,5.001061 5.001062,5.001061 2.76201,0 5.001062,-2.239051 5.001062,-5.001061 l 0,0 0,0 z m -2.089796,0 c 0,1.607848 -1.303419,2.911265 -2.911266,2.911265 -1.607847,0 -2.911266,-1.303417 -2.911266,-2.911265 0,-1.607847 1.303419,-2.911265 2.911266,-2.911265 1.607847,0 2.911266,1.303418 2.911266,2.911265 l 0,0 0,0 z"
         id="path16"
         inkscape:connector-curvature="0" />
      <path
         d="m 5.1320473,64.35564 c 2.7620099,0 5.0010617,-2.239051 5.0010617,-5.001061 0,-2.762009 -2.2390518,-5.001061 -5.0010617,-5.001061 -2.76201,0 -5.00106148,2.239052 -5.00106148,5.001061 0,2.76201 2.23905148,5.001061 5.00106148,5.001061 l 0,0 0,0 z m 0,-2.089796 c -1.6078476,0 -2.9112656,-1.303417 -2.9112656,-2.911265 0,-1.607847 1.303418,-2.911265 2.9112656,-2.911265 1.6078475,0 2.9112654,1.303418 2.9112654,2.911265 0,1.607848 -1.3034179,2.911265 -2.9112654,2.911265 l 0,0 0,0 z"
         id="path18"
         inkscape:connector-curvature="0" />
      <path
         d="m 36.133982,10.048306 c 2.76201,0 5.001061,-2.2390518 5.001061,-5.0010617 0,-2.7620099 -2.239051,-5.00106142 -5.001061,-5.00106142 -2.76201,0 -5.001062,2.23905152 -5.001062,5.00106142 0,2.7620099 2.239052,5.0010617 5.001062,5.0010617 l 0,0 0,0 z m 0,-2.0897962 c -1.607848,0 -2.911266,-1.303418 -2.911266,-2.9112655 0,-1.6078475 1.303418,-2.9112655 2.911266,-2.9112655 1.607847,0 2.911265,1.303418 2.911265,2.9112655 0,1.6078475 -1.303418,2.9112655 -2.911265,2.9112655 l 0,0 0,0 z"
         id="path20"
         inkscape:connector-curvature="0" />
      <path
         d="m 36.897857,44.549057 c -1.953357,0.422058 -3.877806,-0.819336 -4.300689,-2.772692 -0.421231,-1.953357 0.819336,-3.877806 2.772693,-4.300689 1.953356,-0.422057 3.877805,0.819336 4.300688,2.772693 0.422057,1.953357 -0.819336,3.877805 -2.772692,4.300688 l 0,0 z"
         id="path22"
         inkscape:connector-curvature="0" />
    </g>
  </g>
</svg>
