<?xml version="1.0" encoding="UTF-8" standalone="no"?>
<!-- Generator: Adobe Illustrator 14.0.0, SVG Export Plug-In . SVG Version: 6.00 Build 43363)  -->

<svg
   xmlns:dc="http://purl.org/dc/elements/1.1/"
   xmlns:cc="http://creativecommons.org/ns#"
   xmlns:rdf="http://www.w3.org/1999/02/22-rdf-syntax-ns#"
   xmlns:svg="http://www.w3.org/2000/svg"
   xmlns="http://www.w3.org/2000/svg"
   xmlns:sodipodi="http://sodipodi.sourceforge.net/DTD/sodipodi-0.dtd"
   xmlns:inkscape="http://www.inkscape.org/namespaces/inkscape"
   version="1.1"
   id="Ebene_1"
   x="0px"
   y="0px"
   width="472.34268"
   height="219.47948"
   viewBox="0 0 472.34268 219.47948"
   xml:space="preserve"
   sodipodi:docname="Duely_only_white.svg"
   inkscape:version="0.92.1 r15371"><metadata
     id="metadata74"><rdf:RDF><cc:Work
         rdf:about=""><dc:format>image/svg+xml</dc:format><dc:type
           rdf:resource="http://purl.org/dc/dcmitype/StillImage" /><dc:title /></cc:Work></rdf:RDF></metadata><defs
     id="defs72" /><sodipodi:namedview
     pagecolor="#ffffff"
     bordercolor="#666666"
     borderopacity="1"
     objecttolerance="10"
     gridtolerance="10"
     guidetolerance="10"
     inkscape:pageopacity="0"
     inkscape:pageshadow="2"
     inkscape:window-width="1920"
     inkscape:window-height="1017"
     id="namedview70"
     showgrid="false"
     fit-margin-top="0"
     fit-margin-left="0"
     fit-margin-right="0"
     fit-margin-bottom="0"
     inkscape:zoom="0.7"
     inkscape:cx="-37.31537"
     inkscape:cy="127.42972"
     inkscape:window-x="1672"
     inkscape:window-y="-8"
     inkscape:window-maximized="1"
     inkscape:current-layer="g59"
     inkscape:snap-global="true" /><g
     id="g59"
     transform="translate(-3.3343758,-15.129977)"
     style="fill:#ffffff;stroke:#f5ffff;stroke-opacity:1"><path
       style="stroke:#f5ffff;fill:#ffffff;stroke-opacity:1"
       d="m 42.998,105.254 c -1.422,-3.342 -2.125,-6.777 -2.111,-10.306 0.048,-11.547 8.316,-21.853 24.806,-30.917 16.488,-9.063 35.142,-13.546 55.958,-13.447 21.895,0.104 39.115,5.382 51.665,15.833 12.548,10.452 18.785,24.724 18.709,42.813 -0.101,24.057 -9.97,45.213 -29.607,63.466 -10.39,9.639 -23.358,17.498 -38.908,23.583 -15.549,6.086 -30.412,9.095 -44.589,9.027 -13.639,-0.064 -20.435,-5.582 -20.389,-16.552 0.017,-3.977 1.217,-12.182 3.603,-24.617 l 11.927,-62.779 c 1.039,-5.384 1.564,-9.262 1.574,-11.636 0.01,-2.245 -0.7,-4.3 -2.127,-6.169 7.969,-3.169 13.509,-4.747 16.62,-4.732 3.708,0.018 5.554,2.336 5.535,6.955 -0.004,1.092 -0.985,6.699 -2.942,16.825 L 82.721,155.19 c -2.509,13.396 -3.77,21.826 -3.784,25.29 -0.016,3.849 1.184,6.466 3.602,7.85 2.417,1.385 6.975,2.099 13.675,2.144 21.714,0.09 39.926,-6.915 54.635,-21.017 14.708,-14.101 22.114,-31.642 22.214,-52.619 0.055,-16.229 -5.218,-29.241 -15.818,-39.037 C 146.644,68.007 132.49,63.061 114.784,62.963 100.367,62.908 86.908,66.569 74.404,73.945 61.896,81.323 51.428,91.759 42.998,105.254 Z"
       id="path49"
       inkscape:connector-curvature="0" /><path
       style="stroke:#f5ffff;fill:#ffffff;stroke-opacity:1"
       d="m 270.326,161.914 c -4.967,10.881 -10.496,19.711 -16.588,26.492 -6.093,6.781 -11.547,10.16 -16.362,10.137 -3.889,-0.019 -7.039,-1.505 -9.452,-4.46 -2.414,-2.953 -3.609,-6.781 -3.59,-11.482 0.025,-6.039 1.961,-17.114 5.81,-33.226 1.052,-4.353 1.582,-7.102 1.586,-8.248 0.005,-1.147 -0.329,-2.391 -1.001,-3.731 l 7.384,-0.023 c 3.175,0.015 4.756,1.34 4.745,3.974 -0.007,1.642 -1.062,6.351 -3.162,14.128 -0.652,2.326 -1.069,3.927 -1.251,4.804 l -0.816,3.488 c -1.6,6.979 -2.406,12.299 -2.421,15.964 -0.023,5.65 1.784,8.482 5.422,8.5 5.957,0.028 13.551,-7.837 22.785,-23.598 7.543,-12.827 11.327,-21.97 11.35,-27.429 0.003,-0.764 -0.207,-1.528 -0.632,-2.294 2.928,-0.864 5.408,-1.291 7.441,-1.282 3.139,0.015 4.705,1.053 4.696,3.113 -0.002,0.497 -0.148,1.222 -0.438,2.174 -0.146,0.572 -0.489,1.963 -1.034,4.174 -0.073,0.419 -0.436,1.963 -1.089,4.632 -0.472,1.868 -0.816,3.354 -1.035,4.46 l -0.547,2.746 c -1.203,6.292 -1.816,12.186 -1.839,17.681 -0.035,8.397 1.837,12.604 5.618,12.623 8.347,0.039 18.994,-12.505 31.939,-37.635 l 4.482,2.885 c -14.751,30.097 -28.19,45.116 -40.317,45.06 -8.169,-0.039 -12.221,-7.652 -12.157,-22.841 0.012,-2.868 0.17,-6.464 0.473,-10.786 z"
       id="path51"
       inkscape:connector-curvature="0" /><path
       style="stroke:#f5ffff;fill:#ffffff;stroke-opacity:1"
       d="m 318.165,173.603 c -0.047,11.183 4.353,16.794 13.199,16.836 7.669,0.036 16.139,-3.835 25.41,-11.614 9.27,-7.78 17.642,-18.046 25.115,-30.797 l 4.536,2.712 c -7.05,13.958 -16.185,25.497 -27.405,34.618 -11.221,9.122 -21.842,13.658 -31.865,13.611 -6.42,-0.031 -11.486,-2.272 -15.194,-6.729 -3.709,-4.454 -5.547,-10.526 -5.515,-18.215 0.047,-11.093 3.465,-20.562 10.258,-28.41 6.792,-7.848 14.95,-11.75 24.474,-11.705 4.602,0.022 8.279,1.282 11.034,3.78 2.752,2.498 4.121,5.831 4.104,9.998 -0.028,6.844 -3.896,12.886 -11.605,18.126 -7.711,5.24 -16.559,7.835 -26.546,7.789 z m 0.452,-5.506 c 7.455,-0.385 13.858,-2.644 19.209,-6.776 5.35,-4.132 8.036,-8.927 8.06,-14.382 0.021,-4.882 -2.003,-7.334 -6.069,-7.354 -4.852,-0.023 -9.34,2.742 -13.465,8.292 -4.124,5.55 -6.704,12.29 -7.735,20.22 z"
       id="path53"
       inkscape:connector-curvature="0" /><path
       style="stroke:#f5ffff;fill:#ffffff;stroke-opacity:1"
       d="m 430.887,151.263 c -7.445,14.997 -14.915,26.753 -22.405,35.267 -7.491,8.514 -14.107,12.757 -19.85,12.73 -4.174,-0.021 -7.538,-1.767 -10.091,-5.24 -2.554,-3.475 -3.819,-8.003 -3.796,-13.589 0.013,-3.136 0.566,-7.57 1.661,-13.304 l 10.887,-57.441 c -1.392,0.223 -2.604,0.332 -3.639,0.327 -8.205,-0.039 -12.292,-3.73 -12.261,-11.074 l 0.005,-1.32 c 4.271,2.623 9.098,3.945 14.484,3.971 5.386,0.025 10.1,-1.387 14.143,-4.236 l -12.701,68.965 c -1.132,6.191 -1.702,10.454 -1.712,12.787 -0.027,6.465 2.17,9.707 6.594,9.729 4.28,0.021 8.598,-2.551 12.954,-7.714 4.355,-5.162 11.508,-16.174 21.46,-33.034 z"
       id="path55"
       inkscape:connector-curvature="0" /><path
       style="stroke:#f5ffff;fill:#ffffff;stroke-opacity:1"
       d="m 438.344,197.716 c -1.491,-10.258 -4.168,-20.417 -8.031,-30.477 -3.864,-10.06 -8.051,-17.739 -12.559,-23.04 2.649,-2.359 5.365,-3.532 8.147,-3.519 2.39,0.011 4.374,1.179 5.951,3.5 1.577,2.322 3.548,6.988 5.908,14 3.698,10.996 6.456,20.954 8.274,29.875 12.141,-20.407 18.744,-38.259 19.807,-53.555 6.237,1.025 9.351,3.277 9.336,6.757 -0.016,3.672 -2.856,11.214 -8.522,22.624 -5.665,11.411 -11.765,21.863 -18.296,31.356 -7.537,10.943 -15.009,19.563 -22.419,25.858 -7.41,6.295 -13.773,9.431 -19.088,9.406 -4.78,-0.023 -7.16,-2.196 -7.143,-6.519 0.008,-1.76 0.444,-3.823 1.311,-6.19 1.956,1.31 4.379,1.972 7.269,1.985 10.45,0.052 20.47,-7.303 30.055,-22.061 z"
       id="path57"
       inkscape:connector-curvature="0" /></g><g
     id="g67"
     transform="translate(-3.3343758,-15.129977)"
     style="fill:#ffffff;stroke:#ffffff;stroke-opacity:1"><g
       id="g65"
       style="fill:#ffffff;stroke:#ffffff;stroke-opacity:1"><g
         id="g63"
         style="fill:#ffffff;stroke:#ffffff;stroke-opacity:1"><path
           style="fill:#ffffff;stroke:#ffffff;stroke-opacity:1"
           d="m 179.1,61.012 c 0.417,-0.33 -0.784,-2.177 1.796,-0.088 7.872,7.011 11.634,14.988 16.688,23.732 l 1.09,0.283 c 3.134,7.166 4.782,14.957 4.875,23.086 1.106,14.906 -3.16,30.708 -10.397,45.125 0.463,-0.232 0.819,-0.275 0.166,1.209 -2.906,5.957 -8.433,14.258 -14.45,20.592 l -2.938,3.168 c -0.656,0.92 -0.65,1.344 -0.654,1.6 -3.252,3.033 -6.286,5.555 -9.181,7.768 -18.166,15.545 -41.438,25.877 -66.289,25.994 -23.953,-0.688 -51.619,-9.965 -66.254,-32.805 -7.348,-9.16 -12.132,-19.158 -12.754,-30.564 -0.753,-16.827 1.175,-39.286 9.982,-52.654 -1.957,0.383 1.53,-8.445 7.043,-15.66 5.316,-7.264 11.915,-12.903 7.529,-11.651 9.25,-7.518 25.99,-13.511 26.654,-14.307 1.754,-2.544 9.885,-11.033 42.42,-12.379 12.831,-0.245 31.244,4.205 36.25,5.331 7.169,0.781 -16.247,-5.629 -8.97,-4.734 C 118.529,39.55 94.433,39.047 70.756,45.97 47.249,52.906 25.147,68.739 13.42,91.995 c -5.884,11.279 -8.692,24.684 -9.335,36.122 -0.768,11.079 -1.635,22.956 1.232,36.26 2.959,13.59 10.545,24.721 17.157,33.645 7.674,10.754 18.703,19.08 29.647,24.639 7.679,3.352 26.581,12.783 54.38,11.889 26.945,-0.617 59.315,-13.668 83.036,-36.658 24.688,-23.59 38.915,-55.996 38.961,-87.026 -0.027,-15.371 -4.771,-29.637 -10.487,-40.048 -5.661,-10.49 -11.958,-18.143 -16.893,-23.461 -1.259,-1.243 -2.44,-2.541 -3.76,-3.713 -5.725,-5.503 -12.376,-10.783 -20.108,-15.025 -7.896,-4.485 -16.305,-6.938 -24.084,-8.998 -15.977,-4.036 -31.689,-4.953 -44.359,-4.299 -11.599,0.831 -23.302,2.622 -34.767,5.893 5.473,-0.631 10.569,-0.908 14.944,-0.911 -11.868,1.133 -23.407,4.329 -27.565,6.203 -23.214,9.861 -9.091,6.106 0.312,4.978 6.67,-1.125 -1.554,2.744 8.657,0.761 -7.188,1.943 -10.754,3.09 -17.732,5.798 -0.67,0.625 21.643,-7.783 17.126,-4.754 -7.003,1.498 -14.413,4.672 -21.155,7.682 2.587,-0.559 24.196,-8.335 23.513,-6.506 -3.785,0.909 -20.206,4.725 -20.862,6.919 -0.16,0.333 6.616,-2.438 10.119,-3.513 -21.13,8.291 -30.174,16.536 -11.938,8.345 -3.181,1.399 -6.963,3.204 -10.632,5.205 -1.825,1.003 -3.626,2.082 -5.196,3.169 -1.302,0.567 -3.751,3.42 -2.403,1.468 l -0.003,0.077 c -1.302,1.876 1.639,-1.117 3.256,-1.873 1.983,-1.249 4.063,-2.407 5.498,-3.248 -3.359,1.894 -7.447,4.596 -9.127,6.184 0.447,-0.095 0.676,-0.128 1.396,-0.423 2.086,-1.438 4.739,-3.05 7.465,-4.608 -2.323,1.342 -4.581,2.795 -6.549,4.236 1.748,-0.71 3.807,-1.606 6.185,-2.534 8.612,-4.141 17.752,-6.433 22.607,-8.099 19.632,-6.812 41.261,-8.183 62.439,-6.282 10.5,1.056 20.761,3.254 30.405,6.647 9.249,2.892 16.938,8.122 24.3,14.876 z"
           id="path61"
           inkscape:connector-curvature="0" /></g></g></g></svg>